<?xml version="1.0" encoding="UTF-8"?>
<svg version="1.1" xmlns="http://www.w3.org/2000/svg" width="1287" height="363">
<path d="M0 0 C98.01 0 196.02 0 297 0 C297 2.31 297 4.62 297 7 C287.43 7 277.86 7 268 7 C268.02806953 14.17304033 268.07106949 21.34272046 268.15258789 28.51489258 C268.17577689 30.95427753 268.19016568 33.39376274 268.19555664 35.83325195 C268.20483906 39.34129375 268.24581782 42.84775672 268.29296875 46.35546875 C268.28706978 47.99010323 268.28706978 47.99010323 268.28105164 49.65776062 C268.34041698 55.87803922 268.34041698 55.87803922 271.48168945 61.1027832 C272.72825317 62.04190552 272.72825317 62.04190552 274 63 C275.57455739 66.14911479 275.34799118 68.52008816 275 72 C273.22719439 74.97672584 271.14391985 77.42804007 268 79 C262.13609041 79.67660495 262.13609041 79.67660495 259.2421875 77.953125 C257.06373176 76.16405507 255.27042188 74.54084375 254 72 C253.45275929 66.30869663 254.40666293 63.43882815 258 59 C258.66 58.67 259.32 58.34 260 58 C260.33 41.17 260.66 24.34 261 7 C255.72 7 250.44 7 245 7 C245.01773072 17.34465799 245.05645741 27.68865349 245.13209057 38.0330534 C245.16637261 42.83647078 245.19147243 47.63956972 245.19555664 52.44311523 C245.199837 57.07940881 245.22827767 61.71498386 245.27343178 66.35105324 C245.28641522 68.11921821 245.29071145 69.88746913 245.28615379 71.65567589 C245.28125358 74.13411281 245.30731118 76.61044497 245.34057617 79.08862305 C245.33195053 79.81870575 245.32332489 80.54878845 245.31443787 81.30099487 C245.40305001 85.24257149 245.81512764 86.79268507 248.47871399 89.77961731 C249.31073837 90.5123436 250.14276276 91.24506989 251 92 C252.17584751 96.04197581 252.24644076 98.2461812 250.9375 102.25 C248.55932365 105.62547612 246.91908675 106.7187601 243 108 C238.72563406 108 236.59944442 107.40813237 233.0625 105 C230.63666202 101.4715084 230.27513147 99.42879306 230.5 95.2265625 C231.35173291 91.43368938 233.17489042 89.62331604 236 87 C236.66 87 237.32 87 238 87 C238 60.6 238 34.2 238 7 C232.39 7 226.78 7 221 7 C221 46.27 221 85.54 221 126 C222.65 126.66 224.3 127.32 226 128 C228.7048992 132.0573488 228.75306716 135.23867212 228 140 C226.74938904 143.12335325 225.82616201 143.79559363 223 146 C219.50264043 146.79120594 216.50131495 146.7589057 213 146 C209.26674962 143.48577015 208.25203176 141.86635918 207 137.5625 C207 133.46905764 207.77995978 131.40934749 210 128 C210.99 127.34 211.98 126.68 213 126 C213.46242454 123.81693706 213.46242454 123.81693706 213.39872742 121.24179077 C213.41126556 120.23775711 213.42380371 119.23372345 213.4367218 118.19926453 C213.43528671 117.09371719 213.43385162 115.98816986 213.43237305 114.84912109 C213.4425647 113.68815414 213.45275635 112.52718719 213.46325684 111.33103943 C213.4935466 107.47845738 213.50267733 103.6261233 213.51171875 99.7734375 C213.52855361 97.10826821 213.54655541 94.44313258 213.56611633 91.77798462 C213.60983956 85.47049399 213.6383506 79.16302933 213.66143972 72.85543311 C213.68846032 65.67527709 213.73237364 58.49525577 213.77772844 51.3151958 C213.87065796 36.5435416 213.94170133 21.7718321 214 7 C208.72 7 203.44 7 198 7 C198 38.68 198 70.36 198 103 C199.65 103.66 201.3 104.32 203 105 C205.6130301 108.35961012 205.36058891 111.88928645 205 116 C203.74544028 118.82275936 202.71615278 120.46288541 200.25 122.3125 C195.93198763 123.63189267 192.31670682 123.58520303 188.1875 121.75 C185.80222938 119.8417835 184.88810324 118.90651969 184 116 C183.55114985 111.06264839 183.79568989 107.89094799 187 104 C188.32 103.67 189.64 103.34 191 103 C191 71.32 191 39.64 191 7 C185.72 7 180.44 7 175 7 C175.01484552 30.40011225 175.05597676 53.80001038 175.13209057 77.20000839 C175.1667662 88.06467694 175.19209946 98.92921828 175.19555664 109.79394531 C175.19859296 119.26197287 175.21903859 128.72977402 175.26052457 138.19771409 C175.28188649 143.21250601 175.29443881 148.22697579 175.28615379 153.24181366 C175.27863383 157.9599035 175.29435235 162.67733952 175.32806015 167.39530945 C175.3363183 169.12872134 175.33601418 170.86219796 175.32659721 172.59560394 C175.31502344 174.9596741 175.33401589 177.32158415 175.36076355 179.68548584 C175.35009029 180.37420517 175.33941703 181.06292449 175.32842034 181.7725141 C175.3208319 183.94198724 175.3208319 183.94198724 176 187 C178.37140827 189.36486592 178.37140827 189.36486592 181 191 C182.62101789 194.24203579 182.55907107 197.49605455 182 201 C180.10181738 204.26250137 178.70715156 206.38735287 175.0625 207.6953125 C171.56686027 208.3176423 169.49078643 208.20722094 166.1875 206.8125 C162.62441144 203.86022662 161.17258005 202.3313318 160.5625 197.625 C161.07397652 193.38705169 162.33589188 191.29095709 165 188 C165.66 187.67 166.32 187.34 167 187 C167.33 127.6 167.66 68.2 168 7 C162.72 7 157.44 7 152 7 C152 79.93 152 152.86 152 228 C153.32 228.66 154.64 229.32 156 230 C158.5702492 233.01339562 159.23964236 235.1993941 158.9375 239.0625 C158.30356139 242.79569405 157.07167695 244.67297201 154 247 C150.79826746 248.60086627 147.47422941 248.49917089 144 248 C141.1899654 246.20636089 139.49059532 244.98119065 138 242 C137.57924357 238.94049967 137.51564037 236.0535716 138 233 C140.375 229.9375 140.375 229.9375 143 228 C143.66 228 144.32 228 145 228 C145 155.07 145 82.14 145 7 C139.39 7 133.78 7 128 7 C128 73 128 139 128 207 C129.65 207.66 131.3 208.32 133 209 C135.7048992 213.0573488 135.75306716 216.23867212 135 221 C133.74938904 224.12335325 132.82616201 224.79559363 130 227 C126.50264043 227.79120594 123.50131495 227.7589057 120 227 C116.26674962 224.48577015 115.25203176 222.86635918 114 218.5625 C114 214.46905764 114.77995978 212.40934749 117 209 C117.99 208.34 118.98 207.68 120 207 C120.30667546 204.31426848 120.41560792 201.85628675 120.39872742 199.16671753 C120.40537424 198.34829821 120.41202107 197.52987889 120.41886932 196.68665898 C120.4376054 193.92883966 120.43488696 191.17145015 120.43237305 188.41357422 C120.44138375 186.44285463 120.45170924 184.47214068 120.46325684 182.50143433 C120.4909343 177.13807282 120.50012589 171.77481734 120.50611091 166.41139364 C120.51546671 160.8112575 120.54166771 155.21120143 120.56611633 149.6111145 C120.60986216 139.00057311 120.63835941 128.39004718 120.66143972 117.77944291 C120.68844815 105.70219228 120.73236227 93.62502189 120.77772844 81.54782844 C120.87069045 56.69859401 120.94171848 31.84933786 121 7 C115.72 7 110.44 7 105 7 C105 43.96 105 80.92 105 119 C106.98 119.99 106.98 119.99 109 121 C111.54951469 123.45846059 111.97646768 124.81846496 112.4375 128.375 C111.92602348 132.61294831 110.66410812 134.70904291 108 138 C104.52317909 139.73841045 100.80116675 139.44642373 97 139 C94 137.5625 94 137.5625 92 135 C90.71409761 130.692227 90.49390428 127.25192098 92.1875 123.0625 C94 121 94 121 98 119 C98 82.04 98 45.08 98 7 C92.72 7 87.44 7 82 7 C82.01484878 26.22785938 82.05599489 45.45544399 82.13209057 64.68316269 C82.16675873 73.61074308 82.19209847 82.53816878 82.19555664 91.46582031 C82.19859401 99.24626368 82.21905365 107.02643168 82.26052457 114.80676866 C82.28187719 118.92731879 82.29444376 123.04747721 82.28615379 127.16808319 C82.27862768 131.04575411 82.29437637 134.92263043 82.32806015 138.80015564 C82.33631102 140.22395231 82.33602256 141.64782774 82.32659721 143.07161713 C82.31500769 145.01452009 82.33701831 146.95753716 82.36076355 148.90032959 C82.36352893 149.98804531 82.36629431 151.07576103 82.36914349 152.19643784 C83.20837998 155.92605248 84.92542599 156.87462821 88 159 C89.62101789 162.24203579 89.55907107 165.49605455 89 169 C87.10553594 172.2561101 85.69599157 174.3487671 82.09765625 175.73046875 C78.13963075 176.49776352 76.30596518 176.15298259 72.625 174.3125 C69.15513465 171.25571386 68.21745552 169.66715896 67.625 165.125 C68.09860624 161.17828136 69.55670613 159.09004813 72 156 C72.66 155.67 73.32 155.34 74 155 C74.33 106.16 74.66 57.32 75 7 C69.72 7 64.44 7 59 7 C59 45.61 59 84.22 59 124 C60.32 124.33 61.64 124.66 63 125 C65.35103191 128.32387269 66.27572265 131.04173008 66.0625 135.0625 C65.45655766 138.45708019 64.80862341 139.21871611 62.375 142 C58.40424436 144.35304038 56.53806072 144.72933119 52 144 C46.46153846 140.92307692 46.46153846 140.92307692 45 138 C44.44487185 133.36786507 44.3635758 130.01827873 46.875 126 C49 124 49 124 51 123 C51.33 84.72 51.66 46.44 52 7 C46.39 7 40.78 7 35 7 C35.01938652 14.19049666 35.07100334 21.37976373 35.15258789 28.56982422 C35.17579405 31.01604514 35.1901697 33.46236635 35.19555664 35.90869141 C35.20482659 39.42414031 35.24577761 42.93800606 35.29296875 46.453125 C35.2890361 47.5480426 35.28510345 48.64296021 35.28105164 49.77105713 C35.23469483 55.79775423 35.23469483 55.79775423 38.48168945 60.59667969 C39.31273193 61.05977539 40.14377441 61.52287109 41 62 C42.73631636 65.47263273 42.60190402 69.21193013 42 73 C39.81840855 75.75569447 38.12822506 77.43588747 35 79 C31.13110388 79.43964729 29.24334506 79.12635224 25.75 77.3125 C22.80684113 74.83757095 21.78023965 73.72781164 21 70 C21 66.5 21 66.5 22 63 C23.49104248 62.01447144 23.49104248 62.01447144 25.01220703 61.0090332 C27.20865094 59.26022274 27.91654802 58.35251973 28.57122803 55.58700562 C28.79097803 52.49724081 28.8305363 49.45301621 28.8046875 46.35546875 C28.81839386 45.2305452 28.83210022 44.10562164 28.84622192 42.9466095 C28.88356 39.35983426 28.87980405 35.77444221 28.875 32.1875 C28.8931239 29.75323353 28.91392561 27.31898541 28.9375 24.88476562 C28.99442028 18.92236673 28.99575696 12.96359925 29 7 C19.43 7 9.86 7 0 7 C0 4.69 0 2.38 0 0 Z M30 65 C29.34 66.32 28.68 67.64 28 69 C28.99 70.485 28.99 70.485 30 72 C31.65 71.67 33.3 71.34 35 71 C35.33 70.01 35.66 69.02 36 68 C35.34 67.01 34.68 66.02 34 65 C32.68 65 31.36 65 30 65 Z M262 65 C261.34 66.32 260.68 67.64 260 69 C261.22809091 70.64555699 261.22809091 70.64555699 263 72 C265.16299211 71.77242269 265.16299211 71.77242269 267 71 C267.6814823 69.10820797 267.6814823 69.10820797 268 67 C267.34 66.34 266.68 65.68 266 65 C264.68 65 263.36 65 262 65 Z M239 94 C238.67 95.65 238.34 97.3 238 99 C239.98 99.99 239.98 99.99 242 101 C242.99 100.01 243.98 99.02 245 98 C244.34 96.68 243.68 95.36 243 94 C241.68 94 240.36 94 239 94 Z M193 109 C192.34 109.66 191.68 110.32 191 111 C191.3185177 113.10820797 191.3185177 113.10820797 192 115 C193.89179203 115.6814823 193.89179203 115.6814823 196 116 C196.66 115.34 197.32 114.68 198 114 C197.6814823 111.89179203 197.6814823 111.89179203 197 110 C195.10820797 109.3185177 195.10820797 109.3185177 193 109 Z M100 125 C99.34 125.66 98.68 126.32 98 127 C98.32041397 129.60280568 98.32041397 129.60280568 99 132 C100.65 132 102.3 132 104 132 C104.67958603 129.60280568 104.67958603 129.60280568 105 127 C104.34 126.34 103.68 125.68 103 125 C102.01 125 101.02 125 100 125 Z M53 130 C52.32041397 132.39719432 52.32041397 132.39719432 52 135 C52.66 135.66 53.32 136.32 54 137 C56.09291157 136.91428339 56.09291157 136.91428339 58 136 C58.33 135.01 58.66 134.02 59 133 C58.34 132.01 57.68 131.02 57 130 C55.68 130 54.36 130 53 130 Z M217 132 C216.01 132.99 215.02 133.98 214 135 C215.3089572 138.12197478 215.3089572 138.12197478 218 140 C218.99 139.34 219.98 138.68 221 138 C220.67 136.35 220.34 134.7 220 133 C219.01 132.67 218.02 132.34 217 132 Z M77 162 C76.34 162.66 75.68 163.32 75 164 C75.3185177 166.10820797 75.3185177 166.10820797 76 168 C77.89179203 168.6814823 77.89179203 168.6814823 80 169 C80.66 168.34 81.32 167.68 82 167 C81.6814823 164.89179203 81.6814823 164.89179203 81 163 C79.10820797 162.3185177 79.10820797 162.3185177 77 162 Z M169 194 C168.67 195.65 168.34 197.3 168 199 C169.98 199.99 169.98 199.99 172 201 C172.99 200.01 173.98 199.02 175 198 C174.34 196.68 173.68 195.36 173 194 C171.68 194 170.36 194 169 194 Z M123 213 C122.32041397 215.39719432 122.32041397 215.39719432 122 218 C122.66 218.66 123.32 219.32 124 220 C126.09291157 219.91428339 126.09291157 219.91428339 128 219 C128.33 218.01 128.66 217.02 129 216 C128.34 215.01 127.68 214.02 127 213 C125.68 213 124.36 213 123 213 Z M146 235 C145.67 236.65 145.34 238.3 145 240 C146.98 240.99 146.98 240.99 149 242 C149.99 241.01 150.98 240.02 152 239 C151.34 237.68 150.68 236.36 150 235 C148.68 235 147.36 235 146 235 Z " fill="#F48129" transform="translate(6,109)"/>
<path d="M0 0 C7.26 0 14.52 0 22 0 C25.5056376 16.13587802 28.903192 32.28373755 32.08251953 48.48681641 C32.3195459 49.68870605 32.55657227 50.8905957 32.80078125 52.12890625 C33.00872314 53.19181885 33.21666504 54.25473145 33.4309082 55.34985352 C33.96779609 58.08672179 33.96779609 58.08672179 35 61 C35.21075668 60.28003342 35.42151337 59.56006683 35.63865662 58.81828308 C37.6244688 52.03491027 39.61081505 45.25169414 41.59776211 38.46865368 C42.61926231 34.98138609 43.64055554 31.49405816 44.66137695 28.0065918 C45.64644049 24.64131446 46.63204614 21.27619633 47.61802864 17.91118813 C48.17732425 16.0018715 48.73605759 14.09239021 49.29478455 12.1829071 C49.6350618 11.02193008 49.97533905 9.86095306 50.32592773 8.66479492 C50.6257103 7.64109299 50.92549286 6.61739105 51.23435974 5.56266785 C51.79125336 3.69869406 52.38481476 1.84555572 53 0 C59.93 0 66.86 0 74 0 C76.22227598 7.49148979 78.43995272 14.98430405 80.64957428 22.47953415 C81.67578891 25.95986871 82.70400251 29.43958632 83.73681641 32.91796875 C84.73358827 36.27523724 85.7250671 39.63402729 86.71290588 42.99393463 C87.27430183 44.89830538 87.84115804 46.80106371 88.40808105 48.70379639 C88.74843384 49.86469788 89.08878662 51.02559937 89.43945312 52.22167969 C89.7414563 53.24316101 90.04345947 54.26464233 90.35461426 55.31707764 C91 58 91 58 91 62 C91.66 62 92.32 62 93 62 C93.04608398 61.41553101 93.09216797 60.83106201 93.13964844 60.22888184 C93.73978087 53.43171527 94.8922591 46.83917337 96.25 40.15625 C96.46817383 39.06534058 96.68634766 37.97443115 96.91113281 36.85046387 C97.36944408 34.56423485 97.83008875 32.27847246 98.29296875 29.99316406 C99.00332235 26.48358555 99.705326 22.97241013 100.40625 19.4609375 C100.85367845 17.23427684 101.30157816 15.00771081 101.75 12.78125 C101.96043945 11.72925415 102.17087891 10.6772583 102.38769531 9.59338379 C102.58459961 8.62477417 102.78150391 7.65616455 102.984375 6.65820312 C103.24299316 5.37774109 103.24299316 5.37774109 103.50683594 4.07141113 C104 2 104 2 105 0 C111.93 0 118.86 0 126 0 C124.34747397 10.75661294 122.03620895 21.32955556 119.68359375 31.94921875 C119.26270008 33.85777756 118.84197229 35.76637296 118.42140198 37.67500305 C117.54510991 41.64829336 116.66654219 45.62107181 115.78637695 49.59350586 C114.65632354 54.69483421 113.53250178 59.79751281 112.41038418 64.90059185 C111.54573112 68.82922728 110.67761974 72.75709221 109.80845833 76.68473244 C109.39226938 78.56763714 108.97722168 80.45079446 108.56332207 82.33420372 C107.9877443 84.95106215 107.40747938 87.56683673 106.82592773 90.18237305 C106.65500107 90.96408875 106.4840744 91.74580444 106.30796814 92.5512085 C105.11423641 97.88576359 105.11423641 97.88576359 104 99 C102.36527118 99.08700342 100.72685945 99.10701063 99.08984375 99.09765625 C98.10048828 99.09443359 97.11113281 99.09121094 96.09179688 99.08789062 C95.05087891 99.07951172 94.00996094 99.07113281 92.9375 99.0625 C91.89271484 99.05798828 90.84792969 99.05347656 89.77148438 99.04882812 C87.1809334 99.03699913 84.59049441 99.02051689 82 99 C78.63403475 87.60628663 75.32571687 76.19792961 72.12109375 64.7578125 C71.87407211 63.87696487 71.62705048 62.99611725 71.37254333 62.08857727 C70.12572356 57.64090966 68.88289116 53.19217749 67.64526367 48.74194336 C67.18290376 47.08964634 66.72042544 45.43738245 66.2578125 43.78515625 C66.04454819 43.01329987 65.83128387 42.24144348 65.61155701 41.44619751 C64.85102296 37.93907286 64.85102296 37.93907286 63 35 C62.77671524 35.7722995 62.55343048 36.544599 62.32337952 37.34030151 C60.22121176 44.61001567 58.11719494 51.87919083 56.01108646 59.14776421 C54.92832119 62.88483458 53.84627813 66.62211095 52.76586914 70.35986328 C51.72365285 73.9653866 50.67956101 77.57036185 49.63415337 81.17496109 C49.23517109 82.55190712 48.83687089 83.92905097 48.43925667 85.30639267 C47.88325407 87.23196147 47.32462472 89.15677122 46.76586914 91.08154297 C46.44832169 92.17852509 46.13077423 93.2755072 45.80360413 94.4057312 C45 97 45 97 44 99 C36.74 99 29.48 99 22 99 C19.7499142 92.24974261 19.7499142 92.24974261 19.00021362 88.88191223 C18.82918121 88.12072586 18.6581488 87.35953949 18.48193359 86.57528687 C18.30210937 85.76000519 18.12228516 84.94472351 17.93701172 84.10473633 C17.74164825 83.2308577 17.54628479 82.35697906 17.34500122 81.45661926 C16.70337601 78.5824562 16.066377 75.70729137 15.4296875 72.83203125 C14.98432687 70.82992996 14.53877766 68.82787062 14.0930481 66.82585144 C13.16136496 62.63769348 12.23197501 58.44903497 11.30419922 54.26000977 C10.11364948 48.88540868 8.9173799 43.51209977 7.71940422 38.13914967 C6.79920393 34.00907409 5.88202317 29.87833254 4.96576309 25.74738121 C4.52572071 23.76518704 4.08473181 21.78320275 3.64278793 19.80143166 C3.02685209 17.0373183 2.41498155 14.27233608 1.80419922 11.50708008 C1.62032654 10.68572571 1.43645386 9.86437134 1.24700928 9.01812744 C0.57351265 5.95294478 0 3.14868523 0 0 Z " fill="#0D1A42" transform="translate(798,106)"/>
<path d="M0 0 C21 0 21 0 25.54296875 3.26171875 C26.9597168 5.38378906 26.9597168 5.38378906 28.1875 7.6875 C29.19713984 9.25961375 30.20756429 10.83122387 31.21875 12.40234375 C31.91871094 13.57579346 31.91871094 13.57579346 32.6328125 14.77294922 C34.58766457 17.9572636 36.85819255 20.83506928 39.1875 23.75 C39.98542969 24.78640625 40.78335938 25.8228125 41.60546875 26.890625 C42.39566406 27.91671875 43.18585938 28.9428125 44 30 C46.07884682 32.70176223 48.15706019 35.40401166 50.23535156 38.10620117 C52.40486977 40.92683169 54.57500728 43.74698262 56.74609375 46.56640625 C57.19662109 47.15164062 57.64714844 47.736875 58.11132812 48.33984375 C59.36442113 49.9675728 60.61775014 51.59512016 61.87109375 53.22265625 C63.59464158 55.47117461 65.30014039 57.73352052 67 60 C67.33 40.2 67.66 20.4 68 0 C74.6 0 81.2 0 88 0 C88 32.67 88 65.34 88 99 C81.73 99 75.46 99 69 99 C62.44139206 92.37161963 62.44139206 92.37161963 60.58203125 89.1640625 C57.95123493 84.8380449 54.93357202 80.91786792 51.8125 76.9375 C50.71905264 75.50826829 49.62797238 74.07722301 48.5390625 72.64453125 C45.99603752 69.30563632 43.44844149 65.97028673 40.8984375 62.63671875 C39.49472592 60.7995294 38.09107916 58.96229052 36.6875 57.125 C36.04208252 56.28187256 35.39666504 55.43874512 34.73168945 54.57006836 C30.05646337 48.44314658 25.53617682 42.23724312 21 36 C20.67 56.79 20.34 77.58 20 99 C13.4 99 6.8 99 0 99 C0 66.33 0 33.66 0 0 Z " fill="#0D1A42" transform="translate(429,106)"/>
<path d="M0 0 C10.24412852 8.74762179 18.42699952 20.2103011 19.64575195 34.03515625 C20.08026231 49.04740242 18.19812092 60.40603668 9.46875 73.02734375 C9.02917969 73.66414063 8.58960938 74.3009375 8.13671875 74.95703125 C1.17950901 83.97934935 -10.55557067 89.62617977 -21.53125 92.02734375 C-38.95225408 93.44471867 -53.82582928 91.16853351 -67.8671875 80.203125 C-77.8374677 71.27070673 -83.83683568 57.82754589 -84.7734375 44.609375 C-85.33137588 28.51121163 -79.92231978 14.97212114 -68.984375 3.19921875 C-50.20094401 -13.43069786 -20.00884099 -15.59330972 0 0 Z M-57.1328125 21.09765625 C-62.54878033 28.57108672 -64.39946129 36.94942866 -63.53125 46.02734375 C-61.55543227 55.41247796 -56.34313894 63.16637008 -48.30859375 68.50390625 C-40.63509322 72.49125793 -32.23517665 73.38386499 -23.8046875 71.37890625 C-15.10947121 68.22924586 -9.45344886 63.29182903 -5.09375 55.15234375 C-1.17933223 46.57688902 -0.52208294 39.04104141 -3.53125 30.02734375 C-7.48210451 21.50910011 -12.62754881 15.62688411 -21.15625 11.65234375 C-34.46588943 6.89313935 -47.65847288 10.69899081 -57.1328125 21.09765625 Z " fill="#0D1A42" transform="translate(748.53125,113.97265625)"/>
<path d="M0 0 C1.5631897 0.00785522 1.5631897 0.00785522 3.15795898 0.01586914 C4.28266602 0.0190918 5.40737305 0.02231445 6.56616211 0.02563477 C7.75016602 0.03401367 8.93416992 0.04239258 10.15405273 0.05102539 C11.34192383 0.05553711 12.52979492 0.06004883 13.75366211 0.06469727 C16.69967499 0.07652864 19.64558954 0.09301252 22.59155273 0.11352539 C31.11323969 20.4201854 39.3204847 40.84850264 47.47143555 61.30639648 C47.88511383 62.34400116 48.29879211 63.38160583 48.7250061 64.45065308 C49.5364578 66.48599761 50.34732252 68.52157627 51.15756226 70.55740356 C52.99084042 75.15310086 54.84201306 79.73905844 56.75317383 84.30297852 C57.08335007 85.09263 57.41352631 85.88228149 57.75370789 86.69586182 C58.36288013 88.14614523 58.97666349 89.59450438 59.59602356 91.04046631 C60.8035082 93.91176484 61.59155273 95.96247228 61.59155273 99.11352539 C54.00155273 99.11352539 46.41155273 99.11352539 38.59155273 99.11352539 C37.08536134 95.34505842 35.58637728 91.57399845 34.09155273 87.80102539 C33.44766602 86.19324219 33.44766602 86.19324219 32.79077148 84.55297852 C32.3847168 83.52495117 31.97866211 82.49692383 31.56030273 81.43774414 C31.18325195 80.48988037 30.80620117 79.5420166 30.41772461 78.56542969 C29.59155273 76.11352539 29.59155273 76.11352539 29.59155273 73.11352539 C16.39155273 73.11352539 3.19155273 73.11352539 -10.40844727 73.11352539 C-11.39844727 76.41352539 -12.38844727 79.71352539 -13.40844727 83.11352539 C-14.44531726 86.00465194 -15.49517051 88.87321806 -16.59594727 91.73852539 C-17.98813477 95.38915039 -17.98813477 95.38915039 -19.40844727 99.11352539 C-26.99844727 99.11352539 -34.58844727 99.11352539 -42.40844727 99.11352539 C-39.03352673 88.98876377 -39.03352673 88.98876377 -37.59350586 85.44384766 C-37.26761475 84.63765488 -36.94172363 83.8314621 -36.60595703 83.00083923 C-36.25976318 82.15243973 -35.91356934 81.30404022 -35.55688477 80.42993164 C-35.1850708 79.51220474 -34.81325684 78.59447784 -34.43017578 77.64894104 C-33.21725395 74.65688428 -32.0004405 71.66642819 -30.78344727 68.67602539 C-29.93896441 66.59588378 -29.09472928 64.51564158 -28.25073242 62.43530273 C-26.94892985 59.22685697 -25.64683364 56.01853268 -24.34359741 52.81066895 C-21.35318504 45.44899339 -18.37682893 38.08176507 -15.40844727 30.71118164 C-14.24106097 27.81535691 -13.07347278 24.91961366 -11.90582275 22.02389526 C-11.15825658 20.16867987 -10.41146954 18.31315033 -9.66546631 16.45730591 C-8.63159818 13.88603833 -7.59461458 11.31604887 -6.55688477 8.74633789 C-6.25049072 7.98196915 -5.94409668 7.2176004 -5.62841797 6.43006897 C-3.08436565 0.14538571 -3.08436565 0.14538571 0 0 Z M9.59155273 22.11352539 C7.89754311 26.31140847 6.20696864 30.51065237 4.51953125 34.71118164 C3.94527352 36.13929338 3.37008691 37.56703199 2.79394531 38.99438477 C1.96490588 41.04874304 1.13924089 43.10442997 0.31420898 45.16040039 C0.05688492 45.79596863 -0.20043915 46.43153687 -0.46556091 47.08636475 C-1.67005274 50.09702612 -2.61894709 52.95552469 -3.40844727 56.11352539 C5.17155273 56.11352539 13.75155273 56.11352539 22.59155273 56.11352539 C20.14614962 47.90990789 20.14614962 47.90990789 17.32983398 39.88696289 C16.93344727 38.83637695 16.53706055 37.78579102 16.12866211 36.70336914 C15.52248047 35.11202148 15.52248047 35.11202148 14.90405273 33.48852539 C14.48833008 32.38895508 14.07260742 31.28938477 13.64428711 30.15649414 C12.62973362 27.47434124 11.61210668 24.79339956 10.59155273 22.11352539 C10.26155273 22.11352539 9.93155273 22.11352539 9.59155273 22.11352539 Z " fill="#0D1A42" transform="translate(990.408447265625,105.886474609375)"/>
<path d="M0 0 C26.4 0 52.8 0 80 0 C80 17.19297945 80 17.19297945 75.375 21.875 C74.36183096 23.02851568 73.34881758 24.18216809 72.3359375 25.3359375 C71.79420898 25.92600586 71.25248047 26.51607422 70.69433594 27.12402344 C67.66782052 30.47499526 64.85375791 34.00209808 62 37.5 C60.80635118 38.94300752 59.61234398 40.38571867 58.41796875 41.828125 C54.86262127 46.14497808 51.41706194 50.54164489 47.98583984 54.95727539 C44.38042506 59.57324826 40.62898549 64.05198535 36.7902832 68.47558594 C33.58322564 72.1997533 30.88914363 75.95519892 28 80 C45.49 80 62.98 80 81 80 C81 85.94 81 91.88 81 98 C53.94 98.33 26.88 98.66 -1 99 C-1 82.32432432 -1 82.32432432 7 74 C9.14825337 71.45205507 11.22720761 68.84955814 13.3125 66.25 C14.44492072 64.85775416 15.57773349 63.46582712 16.7109375 62.07421875 C19.66006678 58.43444892 22.55774864 54.75725518 25.4375 51.0625 C30.19546043 44.95798029 35.09866813 38.98024695 40.05444336 33.03540039 C40.61010986 32.36629639 41.16577637 31.69719238 41.73828125 31.0078125 C42.46591675 30.13600342 42.46591675 30.13600342 43.20825195 29.24658203 C45.88370797 25.89196338 48.42548039 22.43269282 51 19 C34.17 18.67 17.34 18.34 0 18 C0 12.06 0 6.12 0 0 Z " fill="#0D1A42" transform="translate(1198,106)"/>
<path d="M0 0 C25.08 0 50.16 0 76 0 C76 5.94 76 11.88 76 18 C57.85 18 39.7 18 21 18 C21 25.26 21 32.52 21 40 C33.21 40 45.42 40 58 40 C58 45.94 58 51.88 58 58 C45.79 58 33.58 58 21 58 C21 71.2 21 84.4 21 98 C10.605 98.495 10.605 98.495 0 99 C0 66.33 0 33.66 0 0 Z " fill="#0D1A42" transform="translate(556,106)"/>
<path d="M0 0 C4.01928423 -0.29206649 8.03583834 -0.46849455 12.0625 -0.625 C13.19623047 -0.70878906 14.32996094 -0.79257813 15.49804688 -0.87890625 C23.71993634 -1.11861148 23.71993634 -1.11861148 27.08276367 1.82006836 C28.95087961 4.45554598 30.47056463 7.15496848 32 10 C33.33449475 12.09827263 34.68270595 14.18787101 36.04296875 16.26953125 C38.13441698 19.56400741 40.21916592 22.86264502 42.30273438 26.16210938 C42.98013672 27.22880859 43.65753906 28.29550781 44.35546875 29.39453125 C45.26268677 30.83082886 45.26268677 30.83082886 46.18823242 32.29614258 C47.99407033 34.99115065 49.93725118 37.49793314 52 40 C59.76663613 28.51110507 67.23616479 16.84342487 74.64648438 5.12207031 C75.74390161 3.40151646 76.86799971 1.69800044 78 0 C80.43017578 -0.34057617 80.43017578 -0.34057617 83.4453125 -0.29296875 C84.52167969 -0.28330078 85.59804687 -0.27363281 86.70703125 -0.26367188 C88.39892578 -0.2259668 88.39892578 -0.2259668 90.125 -0.1875 C91.26066406 -0.17396484 92.39632813 -0.16042969 93.56640625 -0.14648438 C96.37807387 -0.11104319 99.18880417 -0.06163517 102 0 C98.37387934 6.90873735 94.20264983 13.37562373 89.84176636 19.84048462 C88.65436148 21.61193836 87.48408646 23.39379928 86.31665039 25.1784668 C82.53418199 30.93150534 78.71050801 36.46703441 74.296875 41.765625 C60.16396578 59.362437 61.00563753 76.39521553 62 98 C54.74 98.33 47.48 98.66 40 99 C40.18755859 95.22949219 40.18755859 95.22949219 40.37890625 91.3828125 C41.09306424 70.1332224 39.70090271 56.08176319 25.97293091 39.07145691 C20.64703145 32.45040681 16.0900361 25.30877885 11.43392944 18.2098999 C9.95501215 15.96409303 8.46163098 13.72870687 6.9621582 11.49658203 C6.49832733 10.80517624 6.03449646 10.11377045 5.55661011 9.40141296 C4.67894555 8.09379916 3.80010663 6.78697262 2.91995239 5.48103333 C0 1.11229871 0 1.11229871 0 0 Z " fill="#0D1A42" transform="translate(1072,106)"/>
<path d="M0 0 C6.93 0 13.86 0 21 0 C21 32.67 21 65.34 21 99 C14.07 99 7.14 99 0 99 C0 66.33 0 33.66 0 0 Z " fill="#0D1A42" transform="translate(369,106)"/>
<path d="M0 0 C2.31 0 4.62 0 7 0 C7 72.93 7 145.86 7 221 C8.32 221.66 9.64 222.32 11 223 C13.5702492 226.01339562 14.23964236 228.1993941 13.9375 232.0625 C13.30356139 235.79569405 12.07167695 237.67297201 9 240 C5.79826746 241.60086627 2.47422941 241.49917089 -1 241 C-3.8100346 239.20636089 -5.50940468 237.98119065 -7 235 C-7.42075643 231.94049967 -7.48435963 229.0535716 -7 226 C-4.625 222.9375 -4.625 222.9375 -2 221 C-1.34 221 -0.68 221 0 221 C0 148.07 0 75.14 0 0 Z M1 228 C0.67 229.65 0.34 231.3 0 233 C1.98 233.99 1.98 233.99 4 235 C4.99 234.01 5.98 233.02 7 232 C6.34 230.68 5.68 229.36 5 228 C3.68 228 2.36 228 1 228 Z " fill="#FBB811" transform="translate(151,116)"/>
<path d="M0 0 C2.31 0 4.62 0 7 0 C7.00054477 0.92398464 7.00108953 1.84796928 7.00165081 2.79995346 C7.01603649 25.26674047 7.0590126 47.73333352 7.13209057 70.20000839 C7.1667662 81.06467694 7.19209946 91.92921828 7.19555664 102.79394531 C7.19859296 112.26197287 7.21903859 121.72977402 7.26052457 131.19771409 C7.28188649 136.21250601 7.29443881 141.22697579 7.28615379 146.24181366 C7.27863383 150.9599035 7.29435235 155.67733952 7.32806015 160.39530945 C7.3363183 162.12872134 7.33601418 163.86219796 7.32659721 165.59560394 C7.31502344 167.9596741 7.33401589 170.32158415 7.36076355 172.68548584 C7.35009029 173.37420517 7.33941703 174.06292449 7.32842034 174.7725141 C7.3208319 176.94198724 7.3208319 176.94198724 8 180 C10.37140827 182.36486592 10.37140827 182.36486592 13 184 C14.62101789 187.24203579 14.55907107 190.49605455 14 194 C12.10181738 197.26250137 10.70715156 199.38735287 7.0625 200.6953125 C3.56686027 201.3176423 1.49078643 201.20722094 -1.8125 199.8125 C-5.37558856 196.86022662 -6.82741995 195.3313318 -7.4375 190.625 C-6.92602348 186.38705169 -5.66410812 184.29095709 -3 181 C-2.34 180.67 -1.68 180.34 -1 180 C-0.67 120.6 -0.34 61.2 0 0 Z M1 187 C0.67 188.65 0.34 190.3 0 192 C1.98 192.99 1.98 192.99 4 194 C4.99 193.01 5.98 192.02 7 191 C6.34 189.68 5.68 188.36 5 187 C3.68 187 2.36 187 1 187 Z " fill="#88C63F" transform="translate(174,116)"/>
<path d="M0 0 C2.31 0 4.62 0 7 0 C7.00054477 0.75906521 7.00108953 1.51813042 7.00165081 2.3001976 C7.0166115 20.7613148 7.05902933 39.22218143 7.13209057 57.68316269 C7.16675873 66.61074308 7.19209847 75.53816878 7.19555664 84.46582031 C7.19859401 92.24626368 7.21905365 100.02643168 7.26052457 107.80676866 C7.28187719 111.92731879 7.29444376 116.04747721 7.28615379 120.16808319 C7.27862768 124.04575411 7.29437637 127.92263043 7.32806015 131.80015564 C7.33631102 133.22395231 7.33602256 134.64782774 7.32659721 136.07161713 C7.31500769 138.01452009 7.33701831 139.95753716 7.36076355 141.90032959 C7.36352893 142.98804531 7.36629431 144.07576103 7.36914349 145.19643784 C8.20837998 148.92605248 9.92542599 149.87462821 13 152 C14.62101789 155.24203579 14.55907107 158.49605455 14 162 C12.10553594 165.2561101 10.69599157 167.3487671 7.09765625 168.73046875 C3.13963075 169.49776352 1.30596518 169.15298259 -2.375 167.3125 C-5.84486535 164.25571386 -6.78254448 162.66715896 -7.375 158.125 C-6.90139376 154.17828136 -5.44329387 152.09004813 -3 149 C-2.34 148.67 -1.68 148.34 -1 148 C-0.67 99.16 -0.34 50.32 0 0 Z M2 155 C1.34 155.66 0.68 156.32 0 157 C0.3185177 159.10820797 0.3185177 159.10820797 1 161 C2.89179203 161.6814823 2.89179203 161.6814823 5 162 C5.66 161.34 6.32 160.68 7 160 C6.6814823 157.89179203 6.6814823 157.89179203 6 156 C4.10820797 155.3185177 4.10820797 155.3185177 2 155 Z " fill="#C52F90" transform="translate(81,116)"/>
<path d="M0 0 C2.31 0 4.62 0 7 0 C7 39.27 7 78.54 7 119 C8.65 119.66 10.3 120.32 12 121 C14.7048992 125.0573488 14.75306716 128.23867212 14 133 C12.74938904 136.12335325 11.82616201 136.79559363 9 139 C5.50264043 139.79120594 2.50131495 139.7589057 -1 139 C-4.73325038 136.48577015 -5.74796824 134.86635918 -7 130.5625 C-7 126.46905764 -6.22004022 124.40934749 -4 121 C-2.515 120.01 -2.515 120.01 -1 119 C-0.53757546 116.81693706 -0.53757546 116.81693706 -0.60127258 114.24179077 C-0.58246536 112.73574028 -0.58246536 112.73574028 -0.5632782 111.19926453 C-0.56471329 110.09371719 -0.56614838 108.98816986 -0.56762695 107.84912109 C-0.5574353 106.68815414 -0.54724365 105.52718719 -0.53674316 104.33103943 C-0.5064534 100.47845738 -0.49732267 96.6261233 -0.48828125 92.7734375 C-0.47144639 90.10826821 -0.45344459 87.44313258 -0.43388367 84.77798462 C-0.39016044 78.47049399 -0.3616494 72.16302933 -0.33856028 65.85543311 C-0.31153968 58.67527709 -0.26762636 51.49525577 -0.22227156 44.3151958 C-0.12934205 29.54354343 -0.05769944 14.77183297 0 0 Z M3 125 C2.01 125.99 1.02 126.98 0 128 C1.3089572 131.12197478 1.3089572 131.12197478 4 133 C4.99 132.34 5.98 131.68 7 131 C6.67 129.35 6.34 127.7 6 126 C5.01 125.67 4.02 125.34 3 125 Z " fill="#0378BE" transform="translate(220,116)"/>
<path d="M0 0 C2.31 0 4.62 0 7 0 C7 38.61 7 77.22 7 117 C8.32 117.33 9.64 117.66 11 118 C13.35103191 121.32387269 14.27572265 124.04173008 14.0625 128.0625 C13.45655766 131.45708019 12.80862341 132.21871611 10.375 135 C6.40424436 137.35304038 4.53806072 137.72933119 0 137 C-5.53846154 133.92307692 -5.53846154 133.92307692 -7 131 C-7.55512815 126.36786507 -7.6364242 123.01827873 -5.125 119 C-3 117 -3 117 -1 116 C-0.67 77.72 -0.34 39.44 0 0 Z M1 123 C0.32041397 125.39719432 0.32041397 125.39719432 0 128 C0.66 128.66 1.32 129.32 2 130 C4.09291157 129.91428339 4.09291157 129.91428339 6 129 C6.33 128.01 6.66 127.02 7 126 C6.34 125.01 5.68 124.02 5 123 C3.68 123 2.36 123 1 123 Z " fill="#644C9A" transform="translate(58,116)"/>
<path d="M0 0 C2.31 0 4.62 0 7 0 C7 36.96 7 73.92 7 112 C8.32 112.66 9.64 113.32 11 114 C13.54951469 116.45846059 13.97646768 117.81846496 14.4375 121.375 C13.92602348 125.61294831 12.66410812 127.70904291 10 131 C6.52317909 132.73841045 2.80116675 132.44642373 -1 132 C-4 130.5625 -4 130.5625 -6 128 C-7.28590239 123.692227 -7.50609572 120.25192098 -5.8125 116.0625 C-4 114 -4 114 0 112 C0 75.04 0 38.08 0 0 Z M2 118 C1.34 118.66 0.68 119.32 0 120 C0.32041397 122.60280568 0.32041397 122.60280568 1 125 C2.65 125 4.3 125 6 125 C6.67958603 122.60280568 6.67958603 122.60280568 7 120 C6.34 119.34 5.68 118.68 5 118 C4.01 118 3.02 118 2 118 Z " fill="#F04033" transform="translate(104,116)"/>
<path d="M0 0 C2.31 0 4.62 0 7 0 C7 31.68 7 63.36 7 96 C8.65 96.66 10.3 97.32 12 98 C14.6130301 101.35961012 14.36058891 104.88928645 14 109 C12.74544028 111.82275936 11.71615278 113.46288541 9.25 115.3125 C4.93198763 116.63189267 1.31670682 116.58520303 -2.8125 114.75 C-5.19777062 112.8417835 -6.11189676 111.90651969 -7 109 C-7.44885015 104.06264839 -7.20431011 100.89094799 -4 97 C-2.02 96.505 -2.02 96.505 0 96 C0 64.32 0 32.64 0 0 Z M2 102 C1.34 102.66 0.68 103.32 0 104 C0.3185177 106.10820797 0.3185177 106.10820797 1 108 C2.89179203 108.6814823 2.89179203 108.6814823 5 109 C5.66 108.34 6.32 107.68 7 107 C6.6814823 104.89179203 6.6814823 104.89179203 6 103 C4.10820797 102.3185177 4.10820797 102.3185177 2 102 Z " fill="#05AFAF" transform="translate(197,116)"/>
<path d="M0 0 C2.31 0 4.62 0 7 0 C7.00142502 0.99114304 7.00285004 1.98228607 7.00431824 3.00346375 C7.02099219 12.34688229 7.06377778 21.68986552 7.13209057 31.0330534 C7.16637261 35.83647078 7.19147243 40.63956972 7.19555664 45.44311523 C7.199837 50.07940881 7.22827767 54.71498386 7.27343178 59.35105324 C7.28641522 61.11921821 7.29071145 62.88746913 7.28615379 64.65567589 C7.28125358 67.13411281 7.30731118 69.61044497 7.34057617 72.08862305 C7.33195053 72.81870575 7.32332489 73.54878845 7.31443787 74.30099487 C7.40305001 78.24257149 7.81512764 79.79268507 10.47871399 82.77961731 C11.72675056 83.87870674 11.72675056 83.87870674 13 85 C14.17584751 89.04197581 14.24644076 91.2461812 12.9375 95.25 C10.55932365 98.62547612 8.91908675 99.7187601 5 101 C0.72563406 101 -1.40055558 100.40813237 -4.9375 98 C-7.36333798 94.4715084 -7.72486853 92.42879306 -7.5 88.2265625 C-6.64826709 84.43368938 -4.82510958 82.62331604 -2 80 C-1.34 80 -0.68 80 0 80 C0 53.6 0 27.2 0 0 Z M1 87 C0.67 88.65 0.34 90.3 0 92 C1.98 92.99 1.98 92.99 4 94 C4.99 93.01 5.98 92.02 7 91 C6.34 89.68 5.68 88.36 5 87 C3.68 87 2.36 87 1 87 Z " fill="#644C9A" transform="translate(244,116)"/>
<path d="M0 0 C5.61 0 11.22 0 17 0 C17 5.61 17 11.22 17 17 C15.35 17 13.7 17 12 17 C12 43.07 12 69.14 12 96 C9.69 96 7.38 96 5 96 C5 69.93 5 43.86 5 17 C3.35 17 1.7 17 0 17 C0 11.39 0 5.78 0 0 Z M6 7 C6 7.99 6 8.98 6 10 C7.32 10 8.64 10 10 10 C10 9.01 10 8.02 10 7 C8.68 7 7.36 7 6 7 Z " fill="#FBB811" transform="translate(146,6)"/>
<path d="M0 0 C5.94 0 11.88 0 18 0 C18 5.94 18 11.88 18 18 C16.35 18 14.7 18 13 18 C13 41.43 13 64.86 13 89 C10.69 89 8.38 89 6 89 C6 65.57 6 42.14 6 18 C4.02 18 2.04 18 0 18 C0 12.06 0 6.12 0 0 Z M7 7 C7 8.32 7 9.64 7 11 C7.99 11 8.98 11 10 11 C10 9.68 10 8.36 10 7 C9.01 7 8.02 7 7 7 Z " fill="#F58229" transform="translate(122,13)"/>
<path d="M0 0 C5.61 0 11.22 0 17 0 C17 5.94 17 11.88 17 18 C15.35 18 13.7 18 12 18 C12 39.12 12 60.24 12 82 C9.69 82 7.38 82 5 82 C5 60.88 5 39.76 5 18 C3.35 18 1.7 18 0 18 C0 12.06 0 6.12 0 0 Z M7 7 C7 8.32 7 9.64 7 11 C7.99 11 8.98 11 10 11 C10 9.68 10 8.36 10 7 C9.01 7 8.02 7 7 7 Z " fill="#88C63F" transform="translate(169,20)"/>
<path d="M0 0 C2.31 0 4.62 0 7 0 C7.00142502 0.62782883 7.00285004 1.25565765 7.00431824 1.9025116 C7.02401328 8.44041566 7.07828305 14.97738583 7.15258789 21.51489258 C7.17577689 23.95427753 7.19016568 26.39376274 7.19555664 28.83325195 C7.20483906 32.34129375 7.24581782 35.84775672 7.29296875 39.35546875 C7.2890361 40.44522507 7.28510345 41.53498138 7.28105164 42.65776062 C7.34041698 48.87803922 7.34041698 48.87803922 10.48168945 54.1027832 C11.31273193 54.72886475 12.14377441 55.35494629 13 56 C14.57455739 59.14911479 14.34799118 61.52008816 14 65 C12.22719439 67.97672584 10.14391985 70.42804007 7 72 C1.13609041 72.67660495 1.13609041 72.67660495 -1.7578125 70.953125 C-3.93626824 69.16405507 -5.72957812 67.54084375 -7 65 C-7.54724071 59.30869663 -6.59333707 56.43882815 -3 52 C-2.01 51.505 -2.01 51.505 -1 51 C-0.67 34.17 -0.34 17.34 0 0 Z M1 58 C0.34 59.32 -0.32 60.64 -1 62 C0.22809091 63.64555699 0.22809091 63.64555699 2 65 C4.16299211 64.77242269 4.16299211 64.77242269 6 64 C6.6814823 62.10820797 6.6814823 62.10820797 7 60 C6.34 59.34 5.68 58.68 5 58 C3.68 58 2.36 58 1 58 Z " fill="#C52F90" transform="translate(267,116)"/>
<path d="M0 0 C5.61 0 11.22 0 17 0 C17 5.61 17 11.22 17 17 C15.35 17 13.7 17 12 17 C12 34.49 12 51.98 12 70 C9.69 70 7.38 70 5 70 C5 52.51 5 35.02 5 17 C3.35 17 1.7 17 0 17 C0 11.39 0 5.78 0 0 Z M7 7 C7 7.99 7 8.98 7 10 C7.99 10 8.98 10 10 10 C10 9.01 10 8.02 10 7 C9.01 7 8.02 7 7 7 Z " fill="#C52F90" transform="translate(76,32)"/>
<path d="M0 0 C1.98 0 3.96 0 6 0 C6.00142502 0.63004944 6.00285004 1.26009888 6.00431824 1.90924072 C6.02399507 8.46321219 6.07822546 15.01624977 6.15258789 21.56982422 C6.17579405 24.01604514 6.1901697 26.46236635 6.19555664 28.90869141 C6.20482659 32.42414031 6.24577761 35.93800606 6.29296875 39.453125 C6.2890361 40.5480426 6.28510345 41.64296021 6.28105164 42.77105713 C6.23469483 48.79775423 6.23469483 48.79775423 9.48168945 53.59667969 C10.31273193 54.05977539 11.14377441 54.52287109 12 55 C13.73631636 58.47263273 13.60190402 62.21193013 13 66 C10.81840855 68.75569447 9.12822506 70.43588747 6 72 C2.13110388 72.43964729 0.24334506 72.12635224 -3.25 70.3125 C-6.19315887 67.83757095 -7.21976035 66.72781164 -8 63 C-8 59.5 -8 59.5 -7 56 C-5.50895752 55.01447144 -5.50895752 55.01447144 -3.98779297 54.0090332 C-1.79134906 52.26022274 -1.08345198 51.35251973 -0.42877197 48.58700562 C-0.20902197 45.49724081 -0.1694637 42.45301621 -0.1953125 39.35546875 C-0.18160614 38.2305452 -0.16789978 37.10562164 -0.15377808 35.9466095 C-0.11644 32.35983426 -0.12019595 28.77444221 -0.125 25.1875 C-0.1068761 22.75323353 -0.08607439 20.31898541 -0.0625 17.88476562 C-0.01061317 11.92304139 0.00755504 5.96192926 0 0 Z M1 58 C0.34 59.32 -0.32 60.64 -1 62 C-0.01 63.485 -0.01 63.485 1 65 C2.65 64.67 4.3 64.34 6 64 C6.33 63.01 6.66 62.02 7 61 C6.34 60.01 5.68 59.02 5 58 C3.68 58 2.36 58 1 58 Z " fill="#0378BE" transform="translate(35,116)"/>
<path d="M0 0 C5.61 0 11.22 0 17 0 C17 5.94 17 11.88 17 18 C15.35 18 13.7 18 12 18 C12 31.86 12 45.72 12 60 C9.69 60 7.38 60 5 60 C5 46.14 5 32.28 5 18 C3.35 18 1.7 18 0 18 C0 12.06 0 6.12 0 0 Z M6 7 C6 8.32 6 9.64 6 11 C6.99 11 7.98 11 9 11 C9 9.68 9 8.36 9 7 C8.01 7 7.02 7 6 7 Z " fill="#0378BE" transform="translate(216,42)"/>
<path d="M0 0 C5.61 0 11.22 0 17 0 C17 5.61 17 11.22 17 17 C15.35 17 13.7 17 12 17 C12 30.2 12 43.4 12 57 C9.69 57 7.38 57 5 57 C5 43.8 5 30.6 5 17 C3.35 17 1.7 17 0 17 C0 11.39 0 5.78 0 0 Z M7 7 C7 7.99 7 8.98 7 10 C8.32 10 9.64 10 11 10 C11 9.01 11 8.02 11 7 C9.68 7 8.36 7 7 7 Z " fill="#F04033" transform="translate(99,45)"/>
<path d="M0 0 C5.61 0 11.22 0 17 0 C17 5.61 17 11.22 17 17 C15.35 17 13.7 17 12 17 C12 28.22 12 39.44 12 51 C9.69 51 7.38 51 5 51 C5 39.78 5 28.56 5 17 C3.35 17 1.7 17 0 17 C0 11.39 0 5.78 0 0 Z M7 7 C7 7.99 7 8.98 7 10 C7.99 10 8.98 10 10 10 C10 9.01 10 8.02 10 7 C9.01 7 8.02 7 7 7 Z " fill="#05AFAF" transform="translate(192,51)"/>
<path d="M0 0 C5.61 0 11.22 0 17 0 C17 5.61 17 11.22 17 17 C15.35 17 13.7 17 12 17 C12 26.24 12 35.48 12 45 C9.69 45 7.38 45 5 45 C5 35.76 5 26.52 5 17 C3.35 17 1.7 17 0 17 C0 11.39 0 5.78 0 0 Z M6 7 C6 7.99 6 8.98 6 10 C7.32 10 8.64 10 10 10 C10 9.01 10 8.02 10 7 C8.68 7 7.36 7 6 7 Z " fill="#644C9A" transform="translate(239,57)"/>
<path d="M0 0 C5.61 0 11.22 0 17 0 C17 5.61 17 11.22 17 17 C15.35 17 13.7 17 12 17 C12 24.26 12 31.52 12 39 C9.69 39 7.38 39 5 39 C5 31.74 5 24.48 5 17 C3.35 17 1.7 17 0 17 C0 11.39 0 5.78 0 0 Z M6 6 C6 7.32 6 8.64 6 10 C7.32 10 8.64 10 10 10 C10 8.68 10 7.36 10 6 C8.68 6 7.36 6 6 6 Z " fill="#644C9A" transform="translate(53,63)"/>
<path d="M0 0 C2.56693189 1.06917091 3.92559337 2.10339965 6 4 C5.34 5.32 4.68 6.64 4 8 C3.319375 7.71125 2.63875 7.4225 1.9375 7.125 C0.968125 6.75375 -0.00125 6.3825 -1 6 C-2.11375 5.566875 -3.2275 5.13375 -4.375 4.6875 C-9.04277079 3.80223313 -11.00837883 4.4668558 -15 7 C-17.52111345 10.89626625 -18.36040642 13.69042873 -17.4375 18.1875 C-16.28791263 21.71153273 -15.25232507 23.99856919 -12 26 C-7.65018096 26.55273944 -3.1639111 26.46961568 1 25 C2.24714403 22.59047977 2.24714403 22.59047977 3 20 C3.33 19.34 3.66 18.68 4 18 C0.37 18 -3.26 18 -7 18 C-7 16.68 -7 15.36 -7 14 C-1.72 14 3.56 14 9 14 C8.49968589 21.25455454 6.93122267 25.3479414 1.375 30.375 C-3.72796073 32.83198109 -8.63260862 33.07986555 -14.05859375 31.33984375 C-17.82220458 29.47017901 -20.46508444 26.8907503 -22.33984375 23.125 C-24.11021158 17.42630118 -23.91213801 11.92952271 -21.375 6.5625 C-14.96575651 -0.3527364 -9.20491205 -1.21332174 0 0 Z " fill="#145DA0" transform="translate(964,264)"/>
<path d="M0 0 C4.1796989 2.8497947 7.11864324 5.98092971 8.75 10.875 C9.28242085 17.157566 8.50601912 21.69468006 4.75 26.875 C-0.48815851 31.04414657 -4.57325422 32.42227424 -11.25 31.875 C-17.06648294 29.97596173 -20.32783081 27.36867807 -23.25 21.875 C-24.95108067 16.77175799 -24.81521247 12.55626566 -22.5625 7.6875 C-17.7477862 -1.12240185 -9.13024068 -3.16046793 0 0 Z M-17.125 7.375 C-19.78210496 10.91780661 -19.60916903 14.63680546 -19.25 18.875 C-17.22333762 22.57890021 -15.76955484 24.52863011 -12.25 26.875 C-7.68413108 27.62293281 -4.04931017 27.22378989 0.1875 25.375 C3.51412918 22.12950812 4.64090106 19.51590086 4.75 14.875 C3.99578205 10.92064231 2.69325253 7.88330443 -0.0625 4.9375 C-6.4659573 1.82724931 -11.57188588 2.93250871 -17.125 7.375 Z " fill="#0097B2" transform="translate(897.25,264.125)"/>
<path d="M0 0 C3.99249725 2.26346301 6.44571124 5.00291823 7.75 9.4375 C8.49602979 14.7840468 8.46139062 18.98837096 6.0625 23.875 C1.71802544 28.68914749 -1.47048604 31.25523679 -8.0625 31.6875 C-12.78312813 31.60104161 -16.29911551 30.41474779 -19.6953125 26.97265625 C-24.04677987 21.88765581 -24.61378926 18.81227196 -24.51953125 12.265625 C-24.09759835 7.83838699 -23.0867653 5.91253749 -20.25 2.4375 C-13.88574662 -2.29344941 -7.25495 -3.10350639 0 0 Z M-18.125 7.1875 C-19.74652113 10.43054226 -20.18925351 12.79271082 -20.25 16.4375 C-18.7405563 20.90125596 -17.2054656 23.80052293 -13.25 26.4375 C-8.5333415 27.20872643 -3.74285741 27.34809744 0.3125 24.5625 C3.62518668 20.31546579 4.25372397 16.76502135 3.75 11.4375 C1.48213762 6.44820277 -1.17144666 4.38247788 -6.25 2.4375 C-10.85266271 2.4375 -14.7462988 4.03404555 -18.125 7.1875 Z " fill="#FFBD59" transform="translate(771.25,264.5625)"/>
<path d="M0 0 C5.61 0 11.22 0 17 0 C17 5.61 17 11.22 17 17 C15.35 17 13.7 17 12 17 C12 22.94 12 28.88 12 35 C9.69 35 7.38 35 5 35 C5 29.06 5 23.12 5 17 C3.35 17 1.7 17 0 17 C0 11.39 0 5.78 0 0 Z M6 7 C6 7.99 6 8.98 6 10 C7.32 10 8.64 10 10 10 C10 9.01 10 8.02 10 7 C8.68 7 7.36 7 6 7 Z " fill="#C52F90" transform="translate(262,67)"/>
<path d="M0 0 C5 0 5 0 6.82104492 1.6965332 C7.36865479 2.47343506 7.91626465 3.25033691 8.48046875 4.05078125 C9.08697266 4.89447266 9.69347656 5.73816406 10.31835938 6.60742188 C10.93517578 7.50009766 11.55199219 8.39277344 12.1875 9.3125 C12.81591797 10.19357422 13.44433594 11.07464844 14.09179688 11.98242188 C16.44394981 15.29053001 18.74840919 18.62261379 21 22 C21.33 14.74 21.66 7.48 22 0 C23.32 0 24.64 0 26 0 C26 10.23 26 20.46 26 31 C24.35 31 22.7 31 21 31 C19.09327944 28.84851817 17.60619878 26.8899286 16.0625 24.5 C12.50362862 19.20993919 8.83614899 14.11486532 5 9 C4.67 16.26 4.34 23.52 4 31 C2.68 31 1.36 31 0 31 C0 20.77 0 10.54 0 0 Z " fill="#FF914D" transform="translate(684,264)"/>
<path d="M0 0 C5.61 0 11.22 0 17 0 C17 5.94 17 11.88 17 18 C15.02 18 13.04 18 11 18 C11 22.29 11 26.58 11 31 C9.02 31 7.04 31 5 31 C5 26.71 5 22.42 5 18 C3.35 18 1.7 18 0 18 C0 12.06 0 6.12 0 0 Z M6 7 C6 8.32 6 9.64 6 11 C7.32 11 8.64 11 10 11 C10 9.68 10 8.36 10 7 C8.68 7 7.36 7 6 7 Z " fill="#0378BE" transform="translate(30,71)"/>
<path d="M0 0 C2.73790614 1.06677614 4.60115447 2.25538507 7 4 C6.01 5.485 6.01 5.485 5 7 C2.83125748 6.49396008 1.00032373 6.00016187 -1 5 C-2.49756871 4.90500497 -3.99942932 4.87012802 -5.5 4.875 C-6.2940625 4.87242187 -7.088125 4.86984375 -7.90625 4.8671875 C-10.05918534 4.86722004 -10.05918534 4.86722004 -12 6 C-12 7.65 -12 9.3 -12 11 C-10.44539063 11.36351562 -10.44539063 11.36351562 -8.859375 11.734375 C-7.48940071 12.07217688 -6.11961885 12.41075984 -4.75 12.75 C-4.06808594 12.90726562 -3.38617187 13.06453125 -2.68359375 13.2265625 C1.59808486 14.30737458 4.37710721 15.379483 7 19 C7.7862248 22.07983233 7.67830963 24.89915596 7 28 C3.45037825 31.73644395 0.43777088 33.17123523 -4.625 33.375 C-10.22905931 33.35870913 -13.66505481 31.39045993 -18 28 C-17.67 26.68 -17.34 25.36 -17 24 C-14 24 -14 24 -11.8125 25.5 C-7.89224591 27.59080218 -5.42139261 27.35656392 -1 27 C-0.01 26.34 0.98 25.68 2 25 C1.505 22.525 1.505 22.525 1 20 C-0.57201172 19.61908203 -0.57201172 19.61908203 -2.17578125 19.23046875 C-3.55482599 18.88336225 -4.93372478 18.53567556 -6.3125 18.1875 C-7.00279297 18.02185547 -7.69308594 17.85621094 -8.40429688 17.68554688 C-15.0463659 15.98492051 -15.0463659 15.98492051 -17 13 C-17.61107924 8.26413589 -17.65852455 6.12889922 -15.25 2 C-10.30062805 -1.04576736 -5.66155912 -0.84400552 0 0 Z " fill="#FF3131" transform="translate(1126,263)"/>
<path d="M0 0 C1.32 0 2.64 0 4 0 C4 4.29 4 8.58 4 13 C9.61 13 15.22 13 21 13 C21 8.71 21 4.42 21 0 C22.65 0 24.3 0 26 0 C26 10.23 26 20.46 26 31 C24.68 31 23.36 31 22 31 C22 26.38 22 21.76 22 17 C16.39 17 10.78 17 5 17 C5 21.62 5 26.24 5 31 C3.35 31 1.7 31 0 31 C0 20.77 0 10.54 0 0 Z " fill="#FF3131" transform="translate(620,264)"/>
<path d="M0 0 C7.59 0 15.18 0 23 0 C23 0.99 23 1.98 23 3 C17.06 3 11.12 3 5 3 C5 6.3 5 9.6 5 13 C8.96 13 12.92 13 17 13 C17 14.32 17 15.64 17 17 C13.04 17 9.08 17 5 17 C5 20.3 5 23.6 5 27 C10.94 27 16.88 27 23 27 C23 28.32 23 29.64 23 31 C15.41 31 7.82 31 0 31 C0 20.77 0 10.54 0 0 Z " fill="#CB6CE6" transform="translate(1051,264)"/>
<path d="M0 0 C7.59 0 15.18 0 23 0 C23 0.99 23 1.98 23 3 C17.06 3 11.12 3 5 3 C5 6.3 5 9.6 5 13 C8.96 13 12.92 13 17 13 C17 14.32 17 15.64 17 17 C13.04 17 9.08 17 5 17 C5 20.3 5 23.6 5 27 C10.94 27 16.88 27 23 27 C23 28.32 23 29.64 23 31 C15.41 31 7.82 31 0 31 C0 20.77 0 10.54 0 0 Z " fill="#5E17EB" transform="translate(497,264)"/>
<path d="M0 0 C1.17546556 0.65102708 2.34561699 1.31228246 3.5 2 C3.17 3.32 2.84 4.64 2.5 6 C-0.5 6 -0.5 6 -2.625 4.4375 C-6.72830192 2.38584904 -10.13480727 2.77611419 -14.5 4 C-16.95243461 5.90063682 -18.12927427 7.25854855 -19.5 10 C-19.84444547 15.25279338 -20.07741751 18.82634624 -16.5 23 C-12.97070942 25.40633448 -11.1644199 26.04582206 -6.875 25.75 C-3.17076098 24.94166778 -3.17076098 24.94166778 0.5 24 C0.5 23.34 0.5 22.68 0.5 22 C1.16 22 1.82 22 2.5 22 C2.83 23.65 3.16 25.3 3.5 27 C-1.79963423 30.1572289 -6.28167187 32.16894928 -12.5 31 C-17.1217526 29.57467849 -19.89221915 27.72933702 -23 24 C-25.43632036 18.96421283 -25.22579902 13.43593225 -24.5 8 C-22.38379543 3.06218933 -19.43338299 0.8076762 -14.640625 -1.3046875 C-9.19464032 -3.07363873 -5.09947305 -2.51382474 0 0 Z " fill="#CB6CE6" transform="translate(579.5,265)"/>
<path d="M0 0 C8.91 0 17.82 0 27 0 C27 0.99 27 1.98 27 3 C23.37 3 19.74 3 16 3 C16 12.24 16 21.48 16 31 C14.35 31 12.7 31 11 31 C11 21.76 11 12.52 11 3 C7.37 3 3.74 3 0 3 C0 2.01 0 1.02 0 0 Z " fill="#145DA0" transform="translate(435,264)"/>
<path d="M0 0 C1.32 0 2.64 0 4 0 C4 8.91 4 17.82 4 27 C10.27 27 16.54 27 23 27 C23 28.32 23 29.64 23 31 C15.41 31 7.82 31 0 31 C0 20.77 0 10.54 0 0 Z " fill="#7ED957" transform="translate(816,264)"/>
<path d="M0 0 C1.65 0 3.3 0 5 0 C5 10.23 5 20.46 5 31 C3.35 31 1.7 31 0 31 C0 20.77 0 10.54 0 0 Z " fill="#5E17EB" transform="translate(1009,264)"/>
</svg>
